<?xml version="1.0" encoding="UTF-8" standalone="no"?>
<!-- Generator: Adobe Illustrator 25.2.0, SVG Export Plug-In . SVG Version: 6.00 Build 0)  -->

<svg
   version="1.1"
   id="LOGOS"
   x="0px"
   y="0px"
   viewBox="0 0 159.43299 128"
   xml:space="preserve"
   sodipodi:docname="logo-elixir.svg"
   width="159.433"
   height="128"
   inkscape:version="1.2 (56b05e47e7, 2022-06-09, custom)"
   xmlns:inkscape="http://www.inkscape.org/namespaces/inkscape"
   xmlns:sodipodi="http://sodipodi.sourceforge.net/DTD/sodipodi-0.dtd"
   xmlns="http://www.w3.org/2000/svg"
   xmlns:svg="http://www.w3.org/2000/svg"><defs
   id="defs261" /><sodipodi:namedview
   id="namedview259"
   pagecolor="#ffffff"
   bordercolor="#666666"
   borderopacity="1.0"
   inkscape:showpageshadow="2"
   inkscape:pageopacity="0.0"
   inkscape:pagecheckerboard="0"
   inkscape:deskcolor="#d1d1d1"
   showgrid="false"
   inkscape:zoom="0.77122964"
   inkscape:cx="-164.67209"
   inkscape:cy="296.28011"
   inkscape:window-width="1848"
   inkscape:window-height="1016"
   inkscape:window-x="72"
   inkscape:window-y="27"
   inkscape:window-maximized="1"
   inkscape:current-layer="LOGOS" />
<style
   type="text/css"
   id="style242">
	.st0{fill:#F47D20;}
	.st1{fill:#4D4848;}
</style>






<g
   id="g270"
   transform="matrix(0.16776762,0,0,0.16776762,9.3730807,10.446892)"
   style="stroke-width:5.96063"><path
     class="st0"
     d="m 756.4,33.1 c -23.7,0 -43,19.2 -43,43 0,7.2 1.8,14.3 5.2,20.6 -4.3,2.1 -14.2,7.1 -28.2,14.4 -7.6,-16 -26.6,-22.8 -42.6,-15.3 -16,7.5 -22.8,26.6 -15.3,42.6 0.5,1 1,1.9 1.5,2.8 -7.2,4 -14.6,8.1 -22.3,12.4 -7.6,-11.6 -23.2,-14.9 -34.8,-7.3 -10.8,7 -14.5,21.1 -8.6,32.5 -7.9,4.7 -15.9,9.6 -23.9,14.5 -7.7,-6.6 -19.3,-5.6 -25.9,2.1 -3.9,4.6 -5.3,10.8 -3.7,16.7 C 482.6,233 451.9,254.9 427,276.2 397.9,211.2 355.1,139.9 295.4,81.8 l -0.2,-0.2 c -7,-6.9 -12.8,-3.8 -4.7,4.7 l 0.3,0.3 c 50.6,54.5 90.4,133.3 117.5,205.2 -102.8,87.8 -216.1,257.9 -91.9,311.3 18.1,7.8 26.3,-7.1 18.5,-11.7 -1.4,-0.8 -56.7,-30.7 -21.5,-122.6 h 88.5 c 4.7,0.2 8.7,-3.6 8.9,-8.3 0.2,-4.7 -3.6,-8.7 -8.3,-8.9 -0.2,0 -0.4,0 -0.6,0 h -81.2 c 5.3,-11.1 11.1,-22 17.5,-32.5 h 63.7 c 4.7,-0.2 8.5,-4.1 8.3,-8.9 -0.2,-4.5 -3.8,-8.1 -8.3,-8.3 h -52.7 c 6.6,-9.8 13.9,-20.1 22.2,-30.9 h 30.5 c 4.7,-0.2 8.5,-4.1 8.3,-8.9 -0.2,-4.5 -3.8,-8.1 -8.3,-8.3 H 385 c 9.6,-11.7 20.3,-24 32,-36.9 l 0.3,-0.3 c 23.3,67.6 34.6,125.2 32.1,144.5 -1.4,10.5 -8.1,14.8 -10.8,16.1 -4.3,2.1 -6.1,8.1 0.7,10.1 21.7,6.4 35.1,-15.2 37.5,-32.5 2.4,-17.5 -9.5,-81.5 -40.9,-157.7 26.2,-26.1 56.5,-51 87.4,-73.9 8.8,5.1 20,2.1 25.1,-6.7 1.6,-2.8 2.5,-6 2.5,-9.2 0,-1.2 -0.1,-2.4 -0.4,-3.6 8.2,-5.7 16.3,-11.3 24.4,-16.6 10.9,8.6 26.6,6.8 35.3,-4 4.9,-6.1 6.6,-14.1 4.7,-21.7 8.1,-5 15.9,-9.8 23.4,-14.3 12.2,12.8 32.5,13.2 45.2,1 8.6,-8.3 12,-20.6 8.6,-32.1 13.7,-7.6 23.6,-13 28.5,-15.8 13.4,19.6 40.1,24.7 59.7,11.3 19.6,-13.4 24.7,-40.1 11.3,-59.7 -7.8,-11.6 -21,-18.6 -35.2,-18.7 z"
     id="path244"
     style="stroke-width:5.96063" /><path
     class="st1"
     d="m 267,377.4 c 1.6,-3.5 2.9,-7.2 4.5,-11.8 1.9,-5.2 3.4,-10.4 4.5,-15.8 l 16.3,-70.7 c 1.3,-7.2 2.4,-12.6 2.7,-15.8 0.5,-2.8 0.7,-5.7 0.5,-8.6 v -3.2 h 37 l -22.2,98.3 c -1.6,7 -2.7,12.3 -3.2,16.1 -0.7,3.8 -0.9,7.7 -0.8,11.5 z"
     id="path246"
     style="stroke-width:5.96063" /><path
     class="st1"
     d="M 174.8,377.4 H 65.2 c -11,0 -18.5,-2.4 -22.5,-7.5 -2.1,-2.9 -3.2,-6.9 -3.2,-12 0.1,-4.6 0.7,-9.2 1.9,-13.7 L 55,284.7 c 2.9,-12 7.2,-20.6 13.1,-25.7 6.2,-5.1 14.5,-7.5 25.7,-7.5 h 80.9 c 11.5,0 19,2.4 22.8,7.5 2.4,3 3.5,7 3.5,12.3 0,4.5 -0.7,9 -1.9,13.4 l -8.8,39.4 H 80.2 l -5.9,25.7 c -0.4,2 -0.7,4.1 -0.8,6.2 0,1.3 0,2.4 0.5,2.9 0.8,1.6 3.2,2.4 7,2.4 h 80.3 c 7,0 14,-0.7 20.9,-2.1 z m -8.6,-98.3 c 0.7,-2.1 1.1,-4.2 1.1,-6.4 0,-0.9 -0.2,-1.8 -0.5,-2.7 -1.1,-1.6 -3.7,-2.4 -7.5,-2.4 h -56.8 c -3.7,0 -6.4,0.8 -8,2.4 -1.9,1.6 -3.2,4.6 -3.7,9.1 L 83.9,308 h 75.5 z"
     id="path248"
     style="stroke-width:5.96063" /><path
     class="st1"
     d="m 202.1,377.4 c 1.7,-3.9 3.1,-8.1 4.8,-13.2 2,-5.8 3.6,-11.7 4.8,-17.7 l 28.1,-130.3 c 1.7,-8.1 2.8,-14.1 3.4,-17.7 0.3,-3.3 0.6,-7.8 0.6,-13.2 H 283 l -35,161.3 c -1.7,7.8 -2.8,13.8 -3.4,18 -0.7,4.3 -1,8.6 -0.8,12.9 z"
     id="path250"
     style="stroke-width:5.96063" /><path
     class="st1"
     d="m 480.7,377.4 c 1.6,-3.5 2.9,-7.2 4.5,-11.8 1.9,-5.1 3.4,-10.4 4.6,-15.8 l 16.3,-70.7 c 1.3,-7.2 2.4,-12.6 2.7,-15.8 0.5,-2.8 0.7,-5.7 0.5,-8.6 v -3.2 h 37 L 524,349.8 c -1.6,7 -2.7,12.3 -3.2,16.1 -0.7,3.8 -0.9,7.7 -0.8,11.5 z"
     id="path252"
     style="stroke-width:5.96063" /><path
     class="st1"
     d="m 654.1,272.7 c -4,-0.3 -8,-0.5 -12.6,-0.5 h -18 c -3.5,0 -6.4,0.8 -8,2.1 -2.1,1.6 -3.5,4.3 -4.6,8.3 l -15,67.2 c -2.7,10.4 -3.8,18.5 -3.8,24.6 v 2.9 H 553 c 1.6,-4 3.2,-7.8 4.3,-11.5 1.1,-3.5 2.4,-8.8 4.3,-16.1 L 577.7,279 c 1.9,-7 2.7,-12.3 3.5,-16.3 0.4,-3.7 0.6,-7.5 0.5,-11.2 h 32.9 l -1.3,12.8 c 1.8,-3.9 4.7,-7.3 8.3,-9.6 3.5,-2.1 8,-3.2 14.2,-3.2 H 668 l 7.8,13.9 c -1.7,1.5 -3.2,3.2 -4.5,5.1 -1.9,2.4 -3.2,3.5 -4,3.5 -4.9,-0.5 -9.2,-1 -13.2,-1.3 z"
     id="path254"
     style="stroke-width:5.96063" /><path
     class="st1"
     d="m 338.8,207.5 c 0,10 -8.1,18.1 -18.1,18.1 -10,0 -18.1,-8.1 -18.1,-18.1 0,-10 8.1,-18.1 18.1,-18.1 0,0 0,0 0,0 10,-0.1 18.1,8.1 18.1,18.1 0,0 0,0 0,0 z"
     id="path256"
     style="stroke-width:5.96063" /></g>
</svg>
